<svg id="Layer_1" enable-background="new 0 0 510 510" height="512" viewBox="0 0 510 510" width="512" xmlns="http://www.w3.org/2000/svg"><g><g><g><path d="m255 0c-98.131 0-158.58 55.352-158.747 55.445 0 0-2.513 3.137-2.983 5.222-3.818 16.948-7.385 39.663-7.385 56.238 0 140.833 118.763 254.972 259.596 254.972 54.231 0 114.568-25.992 154.949-57.243.903-.699 3.769-5.396 3.769-5.396.178-1.087 5.8-23.477 5.8-54.239.001-140.832-114.166-254.999-254.999-254.999z" fill="#fee903"/></g><g><path d="m345.459 364.679c-140.833 0-255-114.167-255-255 0-18.615 2.007-36.753 5.795-54.234-58.645 46.72-96.254 118.747-96.254 199.555 0 61.614 21.852 118.125 58.23 162.204l393.224.387c25.48-30.739 43.927-67.642 52.746-108.353-43.56 34.696-98.725 55.441-158.741 55.441z" fill="#fed402"/></g></g><g><g><g><path d="m330.725 42.41h-128.732l-66.691 241.067 66.691 221.006c17.099 3.615 34.831 5.517 53.007 5.517 78.564 0 149.468-35.726 196.453-92.409v-144.954z" fill="#2696ff"/></g><g><path d="m77.691 42.41c-10.573 0-19.144 8.571-19.144 19.144v356.032c36.017 43.471 86.187 74.791 143.446 86.896v-462.072z" fill="#2577f8"/></g><g><g><path d="m336.403 157.587 115.05 115.051v-109.5l-75.542-45.058z" fill="#2577f8"/></g></g><g><g><path d="m330.725 143.994c0 10.573 8.571 19.144 19.144 19.144h101.584l-120.728-120.728z" fill="#fff"/></g></g><g><g><path d="m165.151 414.213v-33.335c0-21.637 13.46-29.688 30.819-29.688s30.945 8.051 30.945 29.688v33.335c0 21.637-13.586 29.688-30.945 29.688s-30.819-8.051-30.819-29.688zm42.141-33.335c0-8.68-4.277-12.579-11.321-12.579s-11.196 3.899-11.196 12.579v33.335c0 8.68 4.151 12.579 11.196 12.579s11.321-3.899 11.321-12.579z" fill="#fff"/></g><g><path d="m239.493 357.229c0-4.025 4.277-6.038 8.554-6.038h43.65c4.15 0 5.912 4.402 5.912 8.428 0 4.655-2.139 8.681-5.912 8.681h-32.581v21.259h18.995c3.773 0 5.912 3.647 5.912 7.673 0 3.396-1.761 7.422-5.912 7.422h-18.995v32.455c0 4.025-4.906 6.038-9.812 6.038s-9.812-2.013-9.812-6.038v-79.88z" fill="#fff"/></g><g><path d="m304.275 357.229c0-4.025 4.276-6.038 8.554-6.038h43.65c4.151 0 5.912 4.402 5.912 8.428 0 4.655-2.139 8.681-5.912 8.681h-32.58v21.259h18.994c3.774 0 5.912 3.647 5.912 7.673 0 3.396-1.761 7.422-5.912 7.422h-18.994v32.455c0 4.025-4.906 6.038-9.812 6.038-4.905 0-9.812-2.013-9.812-6.038z" fill="#fff"/></g></g><g><g><path d="m124.69 212.484-5.8 3.6c-1.801 1.201-3.601 1.602-5 1.602-5.8 0-9.8-6.201-9.8-12.4 0-4.199 1.8-8.199 5.8-10.6l26.399-16c1.6-1 3.6-1.4 5.8-1.4 6.4 0 13.8 3.801 13.8 9.801v127.197c0 6.4-7.8 9.6-15.6 9.6s-15.6-3.199-15.6-9.6v-101.8z" fill="#d4f2f6"/></g><g><path d="m218.289 177.686c23.2 0 46.6 14.6 46.6 41.398 0 43.4-61.799 57.6-61.799 75.799v1.801h52.398c5 0 9.4 6.199 9.4 13.4 0 7.199-4.4 13.799-9.4 13.799h-71.198c-5.601 0-13.6-3.799-13.6-9.6v-19.4c0-31.398 62.999-49.398 62.999-74.799 0-6.398-4-14.199-15.2-14.199-8 0-15 4-15 15 0 5.801-6.199 11.4-16.399 11.4-8 0-14-3.6-14-16.201 0-24.398 22.399-38.398 45.199-38.398z" fill="#d4f2f6"/></g></g><g><g><path d="m284.678 238.067v-23.802c0-16.594 10.896-22.628 25.143-22.628 14.08 0 25.144 6.034 25.144 22.628v23.802c0 16.595-11.063 22.629-25.144 22.629-14.248 0-25.143-6.034-25.143-22.629zm33.524-23.801c0-5.531-3.186-8.046-8.382-8.046-5.195 0-8.213 2.515-8.213 8.046v23.802c0 5.531 3.018 8.046 8.213 8.046 5.196 0 8.382-2.515 8.382-8.046zm68.723-20.618c0 1.006-.167 2.18-.67 3.186l-59.002 120.852c-1.173 2.515-4.358 4.19-7.543 4.19-5.699 0-9.387-4.692-9.387-8.883 0-1.006.336-2.18.839-3.186l58.833-120.853c1.342-2.849 4.023-4.19 7.04-4.19 4.694.001 9.89 3.521 9.89 8.884zm-25.311 98.392v-23.802c0-16.594 10.896-22.628 25.144-22.628 14.079 0 25.143 6.034 25.143 22.628v23.802c0 16.595-11.063 22.629-25.143 22.629-14.248 0-25.144-6.034-25.144-22.629zm33.525-23.802c0-5.531-3.186-8.045-8.381-8.045-5.196 0-8.214 2.514-8.214 8.045v23.802c0 5.532 3.018 8.046 8.214 8.046 5.195 0 8.381-2.514 8.381-8.046z" fill="#d4f2f6"/></g></g></g><g><path d="m257.43 120.768c-3.553 2.129-7.106 2.129-10.66 0l-7-32.587h24.661z" fill="#fff"/></g><g><circle cx="252.1" cy="69.997" fill="#c3186c" r="36.587"/></g><g><path d="m252.1 33.41c-9.075 0-17.372 3.311-23.766 8.782 2.276 11.041 12.051 19.343 23.766 19.343s21.49-8.302 23.766-19.343c-6.395-5.471-14.691-8.782-23.766-8.782z" fill="#b42d68"/></g><g><circle cx="252.1" cy="24.267" fill="#fe0364" r="24.267"/></g></g></g></svg>