<svg id="Capa_1" enable-background="new 0 0 512 512" height="512" viewBox="0 0 512 512" width="512" xmlns="http://www.w3.org/2000/svg"><g><path d="m237.477 112.339c0 13.25-1.34 22.68-1.5 23.73-.85 5.75-4.95 10.48-10.52 12.15-1.62.49-23.52 6.91-49.34 6.91-21.08 0-44.77-4.27-62.22-19.52-38.82-33.93-28.19-105.26-27.72-108.28.89-5.72 4.99-10.41 10.54-12.06 2.93-.87 72.2-20.95 111.01 12.98 25.16 21.99 29.75 59.58 29.75 84.09z" fill="#9be183"/><g><path d="m398.117 135.609c-17.44 15.25-41.14 19.52-62.22 19.52-25.83 0-47.72-6.42-49.34-6.91-5.57-1.67-9.67-6.4-10.52-12.15-.45-3-10.52-73.94 28.25-107.82 38.81-33.93 108.08-13.85 111.01-12.98 5.55 1.65 9.65 6.34 10.54 12.06.47 3.02 11.099 74.35-27.72 108.28z" fill="#5ebe8e"/></g><path d="m354.807 101.469c-.38.2-38.38 20.27-56.32 47.51-19.81 30.07-27.62 74.71-27.69 75.16-1.45 8.43-8.13 12.49-14.79 12.43-6.71-.07-13.4-4.3-14.79-12.43-.07-.45-7.88-45.09-27.69-75.16-17.94-27.24-55.94-47.31-56.32-47.51-7.34-3.84-10.19-12.9-6.36-20.24s12.87-10.19 20.21-6.37c1.84.95 45.24 23.78 67.53 57.61 7.12 10.82 12.87 22.92 17.42 34.57 4.55-11.65 10.3-23.75 17.42-34.57 22.29-33.83 65.69-56.66 67.53-57.61 7.35-3.83 16.4-.97 20.23 6.38 3.82 7.35.96 16.4-6.38 20.23z" fill="#5ebe8e"/><path d="m354.807 101.469c-.38.2-38.38 20.27-56.32 47.51-19.81 30.07-27.62 74.71-27.69 75.16-1.45 8.43-8.13 12.49-14.79 12.43v-69.53c4.55-11.65 10.3-23.75 17.42-34.57 22.29-33.83 65.69-56.66 67.53-57.61 7.35-3.83 16.4-.97 20.23 6.38 3.82 7.35.96 16.4-6.38 20.23z" fill="#2c9b79"/><g><g><path d="m422.646 408.575c-3.839 0-7.678-1.465-10.606-4.394-5.858-5.857-5.858-15.355 0-21.213l33.223-33.223c5.857-5.857 15.355-5.857 21.213 0s5.858 15.355 0 21.213l-33.223 33.223c-2.929 2.929-6.768 4.394-10.607 4.394z" fill="#5a344b"/></g></g><g><path d="m111.638 357.657c-3.839 0-7.678-1.465-10.606-4.394l-33.194-33.194c-5.858-5.857-5.858-15.355 0-21.213 5.857-5.857 15.355-5.857 21.213 0l33.194 33.194c5.858 5.857 5.858 15.355 0 21.213-2.93 2.929-6.769 4.394-10.607 4.394z" fill="#704c55"/></g><g><path d="m497.006 503.419h-157.58l-83.41-32.629-83.43 32.629h-157.578c-14.17 0-20.46-17.99-9.27-26.8.26-.2 28.22-22.59 55.73-65.18 25.22-39.02 55.28-103.64 55.28-189.82 0-8.29 6.72-15 15-15h248.519c8.28 0 15 6.71 15 15 0 86.18 28.956 151.251 54.176 190.271 27.51 42.59 56.574 64.529 56.854 64.749 11.119 8.79 4.889 26.78-9.291 26.78z" fill="#9b786f"/></g><path d="m497.006 503.419h-157.58l-83.41-32.629v-264.171h124.25c8.28 0 15 6.71 15 15 0 86.18 30.06 150.8 55.28 189.82 27.51 42.59 55.47 64.98 55.75 65.2 11.12 8.79 4.89 26.78-9.29 26.78z" fill="#704c55"/><g><path d="m339.427 388.079v115.34h-166.839v-115.34c0-45.99 37.42-83.41 83.42-83.41s83.419 37.42 83.419 83.41z" fill="#ffeacc"/></g><path d="m339.427 388.079v115.34h-83.42v-198.75c46 0 83.42 37.42 83.42 83.41z" fill="#ffd9b3"/></g></svg>